:FULLY-SPECIFIED
:FORCE-ALL-JOINTS-BE-3DOF
:DEGREES
781
root 1.60099 16.3291 18.6826 -9.9586 74.7957 -16.4187
lfemur -38.9557 16.0168 -15.7165
ltibia 51.84 -0 0
lfoot -22.3093 19.5611 -0.136044
ltoes 20.0661 -0 0
rfemur -14.9366 -23.2411 22.0612
rtibia 50.1466 -0 0
rfoot -21.2353 -34.5606 -0.494004
rtoes -25.426 0 0
lowerback 1.00476 4.64335 -0.773591
upperback -1.03464 6.17422 -3.81588
thorax -1.28299 3.09875 -3.60356
lowerneck -5.34286 -6.55815 -0.730022
upperneck -2.76952 -8.6054 5.29869
head 0.312089 -4.23236 1.58946
lclavicle 6.59965e-014 -6.36111e-015 0
lhumerus -55.9317 -11.371 94.6858
lradius 70.8555 -0 0
lwrist 13.0246 0 0
lhand -18.9893 -4.87499 0.0347233
lfingers 7.12502 -0 0
lthumb 7.31538 24.9822 0.0326333
rclavicle 6.59965e-014 -6.36111e-015 0
rhumerus -31.0155 47.8549 -112.363
rradius 79.1499 -0 0
rwrist 6.25849 0 0
rhand -23.3396 -20.786 -0.0137968
rfingers 7.12502 -0 0
rthumb 3.11547 -50.7515 -0.0146984
782
root 1.57277 16.3496 18.7733 -6.76899 71.8748 -13.2035
lfemur -38.9672 15.0305 -15.3751
ltibia 51.9723 -0 0
lfoot -22.0798 18.3116 -0.175783
ltoes 19.6364 -0 0
rfemur -14.7906 -22.3769 21.9605
rtibia 49.3606 -0 0
rfoot -21.748 -33.9224 -0.591151
rtoes -25.7209 0 0
lowerback 1.00325 4.62236 -0.57487
upperback -1.00343 6.14853 -3.73121
thorax -1.24026 3.08395 -3.62383
lowerneck -5.37844 -6.41482 -0.645063
upperneck -2.72304 -8.42396 5.16902
head 0.317794 -4.14367 1.53886
lclavicle 6.59965e-014 -6.36111e-015 0
lhumerus -55.9775 -11.2423 94.6484
lradius 70.821 -0 0
lwrist 13.6306 0 0
lhand -18.6093 -4.44198 0.0464316
lfingers 7.12502 -0 0
lthumb 7.68218 25.4026 0.0437369
rclavicle 6.59965e-014 -6.36111e-015 0
rhumerus -31.468 47.6461 -112.71
rradius 78.7926 -0 0
rwrist 6.18 0 0
rhand -23.4341 -21.2165 -0.0190059
rfingers 7.12502 -0 0
rthumb 3.02426 -51.1874 -0.0204823
783
root 1.54911 16.3706 18.8624 -4.52468 68.9449 -10.9335
lfemur -39.0034 13.9544 -15.0392
ltibia 52.1677 -0 0
lfoot -21.8761 16.8932 -0.21152
ltoes 19.1254 -0 0
rfemur -14.6744 -21.4625 21.8506
rtibia 48.6505 -0 0
rfoot -22.1727 -33.1116 -0.656007
rtoes -25.835 0 0
lowerback 1.01414 4.60126 -0.370271
upperback -0.966423 6.12278 -3.63779
thorax -1.19913 3.06911 -3.63953
lowerneck -5.4174 -6.26751 -0.557411
upperneck -2.66794 -8.2378 5.03141
head 0.326394 -4.05257 1.4851
lclavicle 6.59965e-014 -6.36111e-015 0
lhumerus -56.0048 -11.1001 94.5898
lradius 70.7491 -0 0
lwrist 14.3006 0 0
lhand -18.2344 -3.97726 0.0573704
lfingers 7.12502 -0 0
lthumb 8.04402 25.854 0.0541461
rclavicle 6.59965e-014 -6.36111e-015 0
rhumerus -31.8983 47.4433 -113.05
rradius 78.4313 -0 0
rwrist 6.09479 0 0
rhand -23.5202 -21.6818 -0.024653
rfingers 7.12502 -0 0
rthumb 2.94132 -51.6585 -0.0267792
784
root 1.52972 16.3917 18.95 -2.87692 66.025 -9.26076
lfemur -39.0615 12.8033 -14.7067
ltibia 52.4118 -0 0
lfoot -21.6939 15.3338 -0.242989
ltoes 18.5457 -0 0
rfemur -14.582 -20.5046 21.7322
rtibia 48.0068 -0 0
rfoot -22.5167 -32.1502 -0.691093
rtoes -25.7884 0 0
lowerback 1.03574 4.58047 -0.160688
upperback -0.924435 6.09762 -3.53661
thorax -1.15937 3.05459 -3.65103
lowerneck -5.4591 -6.11676 -0.467301
upperneck -2.60515 -8.04757 4.88706
head 0.337592 -3.9594 1.42861
lclavicle 6.59965e-014 -6.36111e-015 0
lhumerus -56.0152 -10.9459 94.5124
lradius 70.6415 -0 0
lwrist 15.0237 0 0
lhand -17.8644 -3.48581 0.0671464
lfingers 7.12502 -0 0
lthumb 8.40104 26.3315 0.0634805
rclavicle 6.59965e-014 -6.36111e-015 0
rhumerus -32.3059 47.2465 -113.382
rradius 78.0667 -0 0
rwrist 6.00276 0 0
rhand -23.5954 -22.1754 -0.0307122
rfingers 7.12502 -0 0
rthumb 2.86881 -52.1577 -0.0335282
785
root 1.51431 16.413 19.0368 -1.62747 63.1269 -7.98778
lfemur -39.1385 11.5921 -14.3749
ltibia 52.6903 -0 0
lfoot -21.529 13.6613 -0.270049
ltoes 17.9098 -0 0
rfemur -14.5075 -19.5102 21.6064
rtibia 47.4202 -0 0
rfoot -22.787 -31.06 -0.699635
rtoes -25.6017 0 0
lowerback 1.06635 4.56046 0.0529879
upperback -0.878283 6.07368 -3.42868
thorax -1.12075 3.04072 -3.6587
lowerneck -5.50292 -5.96313 -0.374963
upperneck -2.53559 -7.85392 4.73718
head 0.351094 -3.86449 1.36981
lclavicle 6.59965e-014 -6.36111e-015 0
lhumerus -56.0104 -10.7815 94.4183
lradius 70.4999 -0 0
lwrist 15.7889 0 0
lhand -17.4993 -2.97257 0.0754355
lfingers 7.12502 -0 0
lthumb 8.75336 26.8301 0.0714252
rclavicle 6.59965e-014 -6.36111e-015 0
rhumerus -32.6902 47.0559 -113.704
rradius 77.6996 -0 0
rwrist 5.90378 0 0
rhand -23.6576 -22.6905 -0.0370857
rfingers 7.12502 -0 0
rthumb 2.80891 -52.6782 -0.0405976
786
root 1.5026 16.4343 19.1229 -0.656084 60.2582 -6.99517
lfemur -39.2312 10.3356 -14.0418
ltibia 52.9888 -0 0
lfoot -21.3772 11.9038 -0.292598
ltoes 17.2304 -0 0
rfemur -14.4451 -18.486 21.4742
rtibia 46.8813 -0 0
rfoot -22.9908 -29.8626 -0.68533
rtoes -25.295 0 0
lowerback 1.10427 4.54168 0.269868
upperback -0.828777 6.0516 -3.31497
thorax -1.08305 3.02785 -3.66287
lowerneck -5.54822 -5.80718 -0.280624
upperneck -2.46017 -7.6575 4.58294
head 0.366609 -3.76818 1.30913
lclavicle 6.59965e-014 -6.36111e-015 0
lhumerus -55.9919 -10.6084 94.3096
lradius 70.3259 -0 0
lwrist 16.5856 0 0
lhand -17.1389 -2.4425 0.08198
lfingers 7.12502 -0 0
lthumb 9.10112 27.3449 0.0777293
rclavicle 6.59965e-014 -6.36111e-015 0
rhumerus -33.0509 46.8718 -114.014
rradius 77.3309 -0 0
rwrist 5.79774 0 0
rhand -23.7046 -23.2202 -0.0436053
rfingers 7.12502 -0 0
rthumb 2.76379 -53.2131 -0.0477875
787
root 1.4943 16.4554 19.209 0.11416 57.4249 -6.2069
lfemur -39.3368 9.0484 -13.705
ltibia 53.293 -0 0
lfoot -21.2343 10.0892 -0.310497
ltoes 16.5199 -0 0
rfemur -14.3887 -17.4388 21.3368
rtibia 46.3807 -0 0
rfoot -23.1351 -28.5796 -0.65214
rtoes -24.8888 0 0
lowerback 1.14781 4.52461 0.489066
upperback -0.776725 6.03205 -3.19649
thorax -1.04604 3.01633 -3.66393
lowerneck -5.59438 -5.64946 -0.184505
upperneck -2.37978 -7.45897 4.42552
head 0.383847 -3.67082 1.24698
lclavicle 6.59965e-014 -6.36111e-015 0
lhumerus -55.9614 -10.4282 94.1886
lradius 70.1213 -0 0
lwrist 17.4028 0 0
lhand -16.7831 -1.90057 0.086587
lfingers 7.12502 -0 0
lthumb 9.44445 27.871 0.0822032
rclavicle 6.59965e-014 -6.36111e-015 0
rhumerus -33.3873 46.6943 -114.308
rradius 76.9612 -0 0
rwrist 5.68452 0 0
rhand -23.7339 -23.758 -0.0500375
rfingers 7.12502 -0 0
rthumb 2.73559 -53.7553 -0.0548348
788
root 1.48912 16.4762 19.2954 0.734664 54.6314 -5.57245
lfemur -39.4519 7.74532 -13.3625
ltibia 53.5884 -0 0
lfoot -21.0963 8.24534 -0.323522
ltoes 15.7909 -0 0
rfemur -14.3326 -16.3753 21.1956
rtibia 45.909 -0 0
rfoot -23.227 -27.2325 -0.604106
rtoes -24.4033 0 0
lowerback 1.19529 4.50974 0.709697
upperback -0.722928 6.01568 -3.07421
thorax -1.00949 3.00649 -3.66221
lowerneck -5.64078 -5.49054 -0.0868241
upperneck -2.29532 -7.25901 4.26609
head 0.40252 -3.57274 1.18378
lclavicle 6.59965e-014 -6.36111e-015 0
lhumerus -55.9205 -10.2425 94.0574
lradius 69.8878 -0 0
lwrist 18.2298 0 0
lhand -16.4317 -1.35174 0.0891258
lfingers 7.12502 -0 0
lthumb 9.78346 28.4035 0.0847168
rclavicle 6.59965e-014 -6.36111e-015 0
rhumerus -33.699 46.5236 -114.585
rradius 76.5915 -0 0
rwrist 5.56402 0 0
rhand -23.7435 -24.2971 -0.0560912
rfingers 7.12502 -0 0
rthumb 2.72649 -54.2981 -0.0614202
789
root 1.48679 16.4965 19.3824 1.24109 51.8818 -5.05712
lfemur -39.5736 6.44104 -13.0125
ltibia 53.8608 -0 0
lfoot -20.9592 6.40028 -0.33133
ltoes 15.0559 -0 0
rfemur -14.2708 -15.3024 21.0521
rtibia 45.4569 -0 0
rfoot -23.2739 -25.8426 -0.545195
rtoes -23.859 0 0
lowerback 1.24502 4.49758 0.93088
upperback -0.668185 6.00314 -2.94914
thorax -0.973171 2.99869 -3.6581
lowerneck -5.6868 -5.33098 0.012207
upperneck -2.20765 -7.05828 4.10581
head 0.422342 -3.47428 1.11996
lclavicle 6.59965e-014 -6.36111e-015 0
lhumerus -55.8708 -10.053 93.918
lradius 69.627 -0 0
lwrist 19.0557 0 0
lhand -16.0846 -0.800974 0.0895258
lfingers 7.12502 -0 0
lthumb 10.1183 28.9376 0.0851975
rclavicle 6.59965e-014 -6.36111e-015 0
rhumerus -33.9855 46.36 -114.844
rradius 76.2224 -0 0
rwrist 5.4361 0 0
rhand -23.7311 -24.8307 -0.0614274
rfingers 7.12502 -0 0
rthumb 2.73862 -54.8343 -0.0671792
790
root 1.487 16.5162 19.4705 1.65895 49.1794 -4.63634
lfemur -39.6985 5.15022 -12.6533
ltibia 54.0957 -0 0
lfoot -20.8189 4.58193 -0.333452
ltoes 14.3275 -0 0
rfemur -14.1973 -14.2267 20.9082
rtibia 45.0149 -0 0
rfoot -23.2831 -24.4314 -0.479169
rtoes -23.2761 0 0
lowerback 1.29533 4.48865 1.15174
upperback -0.613291 5.99509 -2.82224
thorax -0.936857 2.99326 -3.65193
lowerneck -5.73182 -5.17134 0.11238
upperneck -2.11763 -6.85749 3.94582
head 0.44303 -3.37578 1.05593
lclavicle 6.59965e-014 -6.36111e-015 0
lhumerus -55.8137 -9.86126 93.7727
lradius 69.3407 -0 0
lwrist 19.8697 0 0
lhand -15.7418 -0.253234 0.0877753
lfingers 7.12502 -0 0
lthumb 10.449 29.4682 0.0836287
rclavicle 6.59965e-014 -6.36111e-015 0
rhumerus -34.2464 46.2037 -115.081
rradius 75.8549 -0 0
rwrist 5.30067 0 0
rhand -23.6945 -25.352 -0.0656721
rfingers 7.12502 -0 0
rthumb 2.77414 -55.3572 -0.0717146
791
root 1.48948 16.5352 19.5602 2.00705 46.5274 -4.29237
lfemur -39.8234 3.88749 -12.2834
ltibia 54.2789 -0 0
lfoot -20.6715 2.81824 -0.329299
ltoes 13.6182 -0 0
rfemur -14.1061 -13.1549 20.7658
rtibia 44.5738 -0 0
rfoot -23.2623 -23.0202 -0.40948
rtoes -22.6751 0 0
lowerback 1.34454 4.48346 1.37139
upperback -0.559035 5.99222 -2.69449
thorax -0.900318 2.99056 -3.64407
lowerneck -5.77522 -5.01219 0.213491
upperneck -2.02612 -6.6573 3.78727
head 0.464304 -3.27759 0.992104
lclavicle 6.59965e-014 -6.36111e-015 0
lhumerus -55.7509 -9.66888 93.6236
lradius 69.0306 -0 0
lwrist 20.6609 0 0
lhand -15.4031 0.286514 0.0839189
lfingers 7.12502 -0 0
lthumb 10.7757 29.9904 0.0800475
rclavicle 6.59965e-014 -6.36111e-015 0
rhumerus -34.4812 46.0549 -115.294
rradius 75.4896 -0 0
rwrist 5.15759 0 0
rhand -23.6314 -25.8545 -0.0684318
rfingers 7.12502 -0 0
rthumb 2.83517 -55.8597 -0.0746118
792
root 1.49395 16.5534 19.6517 2.29953 43.9285 -4.01211
lfemur -39.9448 2.66744 -11.9015
ltibia 54.3959 -0 0
lfoot -20.513 1.13717 -0.31819
ltoes 12.9406 -0 0
rfemur -13.991 -12.0937 20.627
rtibia 44.124 -0 0
rfoot -23.2194 -21.6305 -0.339197
rtoes -22.0761 0 0
lowerback 1.39098 4.48259 1.58896
upperback -0.506205 5.99519 -2.56689
thorax -0.863325 2.99093 -3.63487
lowerneck -5.81641 -4.8541 0.315343
upperneck -1.93394 -6.45844 3.63127
head 0.485884 -3.18005 0.928901
lclavicle 6.59965e-014 -6.36111e-015 0
lhumerus -55.6837 -9.47751 93.4727
lradius 68.6983 -0 0
lwrist 21.4185 0 0
lhand -15.0683 0.813305 0.078056
lfingers 7.12502 -0 0
lthumb 11.0986 30.4995 0.0745434
rclavicle 6.59965e-014 -6.36111e-015 0
rhumerus -34.6893 45.9138 -115.482
rradius 75.1273 -0 0
rwrist 5.00677 0 0
rhand -23.5396 -26.3313 -0.0693113
rfingers 7.12502 -0 0
rthumb 2.92386 -56.335 -0.075457
